<svg xmlns:xlink="http://www.w3.org/1999/xlink" version="1.1" class="highcharts-root" style="font-family: -apple-system, BlinkMacSystemFont, &quot;Segoe UI&quot;, Roboto, Helvetica, Arial, &quot;Apple Color Emoji&quot;, &quot;Segoe UI Emoji&quot;, &quot;Segoe UI Symbol&quot;, sans-serif; font-size: 1rem;" xmlns="http://www.w3.org/2000/svg" width="600" height="400" viewBox="0 0 600 400" aria-hidden="false"><desc aria-hidden="true">Created with Highcharts 12.3.0</desc><defs aria-hidden="true"><filter id="highcharts-drop-shadow-2"><feDropShadow dx="1" dy="1" flood-color="#000000" flood-opacity="0.75" stdDeviation="2.5"></feDropShadow></filter><clipPath id="highcharts-tkdkmv3-53-"><rect x="0" y="0" width="292" height="351" fill="none"></rect></clipPath><filter id="highcharts-drop-shadow-2-offsetx--1-offsety--1"><feDropShadow dx="-1" dy="-1" flood-color="#000000" flood-opacity="0.75" stdDeviation="2.5"></feDropShadow></filter><clipPath id="highcharts-tkdkmv3-54-"><rect x="238" y="61" width="352" height="292" fill="none"></rect></clipPath></defs><rect fill="#ffffff" class="highcharts-background" filter="none" x="0" y="0" width="600" height="400" rx="0" ry="0" aria-hidden="true"></rect><rect fill="none" class="highcharts-plot-background" x="238" y="61" width="352" height="292" filter="none" aria-hidden="true"></rect><g class="highcharts-plot-lines-0" data-z-index="0" aria-hidden="true"><path fill="none" class="highcharts-plot-line " stroke="rgb(197, 90, 17)" stroke-width="3" stroke-dasharray="none" d="M 414.5 61 L 414.5 353"></path></g><g class="highcharts-grid highcharts-yaxis-grid" data-z-index="1" aria-hidden="true"><path fill="none" stroke="#e6e6e6" stroke-width="1" stroke-dasharray="none" data-z-index="1" class="highcharts-grid-line" d="M 238.5 61 L 238.5 353" opacity="1"></path><path fill="none" stroke="#e6e6e6" stroke-width="1" stroke-dasharray="none" data-z-index="1" class="highcharts-grid-line" d="M 308.5 61 L 308.5 353" opacity="1"></path><path fill="none" stroke="#e6e6e6" stroke-width="1" stroke-dasharray="none" data-z-index="1" class="highcharts-grid-line" d="M 378.5 61 L 378.5 353" opacity="1"></path><path fill="none" stroke="#e6e6e6" stroke-width="1" stroke-dasharray="none" data-z-index="1" class="highcharts-grid-line" d="M 449.5 61 L 449.5 353" opacity="1"></path><path fill="none" stroke="#e6e6e6" stroke-width="1" stroke-dasharray="none" data-z-index="1" class="highcharts-grid-line" d="M 519.5 61 L 519.5 353" opacity="1"></path><path fill="none" stroke="#e6e6e6" stroke-width="1" stroke-dasharray="none" data-z-index="1" class="highcharts-grid-line" d="M 590.5 61 L 590.5 353" opacity="1"></path></g><g class="highcharts-grid highcharts-xaxis-grid" data-z-index="1" aria-hidden="true"><path fill="none" stroke="#e6e6e6" stroke-width="0" stroke-dasharray="none" data-z-index="1" class="highcharts-grid-line" d="M 238 79.5 L 590 79.5" opacity="1"></path><path fill="none" stroke="#e6e6e6" stroke-width="0" stroke-dasharray="none" data-z-index="1" class="highcharts-grid-line" d="M 238 97.5 L 590 97.5" opacity="1"></path><path fill="none" stroke="#e6e6e6" stroke-width="0" stroke-dasharray="none" data-z-index="1" class="highcharts-grid-line" d="M 238 115.5 L 590 115.5" opacity="1"></path><path fill="none" stroke="#e6e6e6" stroke-width="0" stroke-dasharray="none" data-z-index="1" class="highcharts-grid-line" d="M 238 134.5 L 590 134.5" opacity="1"></path><path fill="none" stroke="#e6e6e6" stroke-width="0" stroke-dasharray="none" data-z-index="1" class="highcharts-grid-line" d="M 238 152.5 L 590 152.5" opacity="1"></path><path fill="none" stroke="#e6e6e6" stroke-width="0" stroke-dasharray="none" data-z-index="1" class="highcharts-grid-line" d="M 238 170.5 L 590 170.5" opacity="1"></path><path fill="none" stroke="#e6e6e6" stroke-width="0" stroke-dasharray="none" data-z-index="1" class="highcharts-grid-line" d="M 238 188.5 L 590 188.5" opacity="1"></path><path fill="none" stroke="#e6e6e6" stroke-width="0" stroke-dasharray="none" data-z-index="1" class="highcharts-grid-line" d="M 238 207.5 L 590 207.5" opacity="1"></path><path fill="none" stroke="#e6e6e6" stroke-width="0" stroke-dasharray="none" data-z-index="1" class="highcharts-grid-line" d="M 238 225.5 L 590 225.5" opacity="1"></path><path fill="none" stroke="#e6e6e6" stroke-width="0" stroke-dasharray="none" data-z-index="1" class="highcharts-grid-line" d="M 238 243.5 L 590 243.5" opacity="1"></path><path fill="none" stroke="#e6e6e6" stroke-width="0" stroke-dasharray="none" data-z-index="1" class="highcharts-grid-line" d="M 238 261.5 L 590 261.5" opacity="1"></path><path fill="none" stroke="#e6e6e6" stroke-width="0" stroke-dasharray="none" data-z-index="1" class="highcharts-grid-line" d="M 238 280.5 L 590 280.5" opacity="1"></path><path fill="none" stroke="#e6e6e6" stroke-width="0" stroke-dasharray="none" data-z-index="1" class="highcharts-grid-line" d="M 238 298.5 L 590 298.5" opacity="1"></path><path fill="none" stroke="#e6e6e6" stroke-width="0" stroke-dasharray="none" data-z-index="1" class="highcharts-grid-line" d="M 238 316.5 L 590 316.5" opacity="1"></path><path fill="none" stroke="#e6e6e6" stroke-width="0" stroke-dasharray="none" data-z-index="1" class="highcharts-grid-line" d="M 238 334.5 L 590 334.5" opacity="1"></path><path fill="none" stroke="#e6e6e6" stroke-width="0" stroke-dasharray="none" data-z-index="1" class="highcharts-grid-line" d="M 238 353.5 L 590 353.5" opacity="1"></path><path fill="none" stroke="#e6e6e6" stroke-width="0" stroke-dasharray="none" data-z-index="1" class="highcharts-grid-line" d="M 238 61.5 L 590 61.5" opacity="1"></path></g><rect fill="none" class="highcharts-plot-border" data-z-index="1" stroke="#cccccc" stroke-width="0" x="238" y="61" width="352" height="292" aria-hidden="true"></rect><g class="highcharts-axis highcharts-yaxis" data-z-index="2" aria-hidden="true"><path fill="none" class="highcharts-axis-line" stroke="#333333" stroke-width="0" data-z-index="7" d="M 238 353 L 590 353"></path></g><g class="highcharts-axis highcharts-xaxis" data-z-index="2" aria-hidden="true"><text x="-73.765625" data-z-index="7" text-anchor="middle" transform="translate(0,0) rotate(270 -73.765625 207)" class="highcharts-axis-title" style="font-size: 0.8em; fill: rgb(102, 102, 102);" y="207">Sites</text><path fill="none" class="highcharts-axis-line" stroke="#333333" stroke-width="1" data-z-index="7" d="M 238.5 61 L 238.5 353"></path></g><g class="highcharts-series-group" data-z-index="3" filter="none" aria-hidden="false"><g class="highcharts-series highcharts-series-0 highcharts-bar-series highcharts-color-0" data-z-index="0.1" opacity="1" transform="translate(238,61) rotate(90 30 322) scale(-1 1)" clip-path="url(#highcharts-tkdkmv3-53-)" aria-hidden="false"><path fill="rgb(46, 117, 182)" d="M 280 0 L 285 0 A 3 3 0 0 1 288 3 L 288 352 A 0 0 0 0 1 288 352 L 277 352 A 0 0 0 0 1 277 352 L 277 3 A 3 3 0 0 1 280 0 Z" stroke="#ffffff" stroke-width="0" opacity="1" filter="none" class="highcharts-point highcharts-color-0" tabindex="-1" role="img" aria-label="Observatoire de l'accessibilité numérique ,  100 Score." style="outline: none;"></path><path fill="rgb(46, 117, 182)" d="M 262 35 L 267 35 A 3 3 0 0 1 270 38 L 270 352 A 0 0 0 0 1 270 352 L 259 352 A 0 0 0 0 1 259 352 L 259 38 A 3 3 0 0 1 262 35 Z" stroke="#ffffff" stroke-width="0" opacity="1" filter="none" class="highcharts-point highcharts-color-0" tabindex="-1" role="img" aria-label="Institut national de recherches archéologiques ,  90 Score." style="outline: none;"></path><path fill="rgb(46, 117, 182)" d="M 244 39 L 249 39 A 3 3 0 0 1 252 42 L 252 352 A 0 0 0 0 1 252 352 L 241 352 A 0 0 0 0 1 241 352 L 241 42 A 3 3 0 0 1 244 39 Z" stroke="#ffffff" stroke-width="0" opacity="1" filter="none" class="highcharts-point highcharts-color-0" tabindex="-1" role="img" aria-label="Centre commun de la sécurité sociale ,  89 Score." style="outline: none;"></path><path fill="rgb(46, 117, 182)" d="M 226 49 L 231 49 A 3 3 0 0 1 234 52 L 234 352 A 0 0 0 0 1 234 352 L 223 352 A 0 0 0 0 1 223 352 L 223 52 A 3 3 0 0 1 226 49 Z" stroke="#ffffff" stroke-width="0" opacity="1" filter="none" class="highcharts-point highcharts-color-0" tabindex="-1" role="img" aria-label="Accessibilité infrastructure - Luxembourg ,  86 Score." style="outline: none;"></path><path fill="rgb(46, 117, 182)" d="M 207 63 L 212 63 A 3 3 0 0 1 215 66 L 215 352 A 0 0 0 0 1 215 352 L 204 352 A 0 0 0 0 1 204 352 L 204 66 A 3 3 0 0 1 207 63 Z" stroke="#ffffff" stroke-width="0" opacity="1" filter="none" class="highcharts-point highcharts-color-0" tabindex="-1" role="img" aria-label="Sécurité alimentaire ,  82 Score." style="outline: none;"></path><path fill="rgb(46, 117, 182)" d="M 189 63 L 194 63 A 3 3 0 0 1 197 66 L 197 352 A 0 0 0 0 1 197 352 L 186 352 A 0 0 0 0 1 186 352 L 186 66 A 3 3 0 0 1 189 63 Z" stroke="#ffffff" stroke-width="0" opacity="1" filter="none" class="highcharts-point highcharts-color-0" tabindex="-1" role="img" aria-label="Portail du Grand-Duché de Luxembourg ,  82 Score." style="outline: none;"></path><path fill="rgb(46, 117, 182)" d="M 171 81 L 176 81 A 3 3 0 0 1 179 84 L 179 352 A 0 0 0 0 1 179 352 L 168 352 A 0 0 0 0 1 168 352 L 168 84 A 3 3 0 0 1 171 81 Z" stroke="#ffffff" stroke-width="0" opacity="1" filter="none" class="highcharts-point highcharts-color-0" tabindex="-1" role="img" aria-label="Trésorerie de l'Etat ,  77 Score." style="outline: none;"></path><path fill="rgb(46, 117, 182)" d="M 153 137 L 158 137 A 3 3 0 0 1 161 140 L 161 352 A 0 0 0 0 1 161 352 L 150 352 A 0 0 0 0 1 150 352 L 150 140 A 3 3 0 0 1 153 137 Z" stroke="#ffffff" stroke-width="0" opacity="1" filter="none" class="highcharts-point highcharts-color-0" tabindex="-1" role="img" aria-label="Portail de la fonction publique ,  61 Score." style="outline: none;"></path><path fill="rgb(46, 117, 182)" d="M 134 144 L 139 144 A 3 3 0 0 1 142 147 L 142 352 A 0 0 0 0 1 142 352 L 131 352 A 0 0 0 0 1 131 352 L 131 147 A 3 3 0 0 1 134 144 Z" stroke="#ffffff" stroke-width="0" opacity="1" filter="none" class="highcharts-point highcharts-color-0" tabindex="-1" role="img" aria-label="Bee secure ,  59 Score." style="outline: none;"></path><path fill="rgb(46, 117, 182)" d="M 116 158 L 121 158 A 3 3 0 0 1 124 161 L 124 352 A 0 0 0 0 1 124 352 L 113 352 A 0 0 0 0 1 113 352 L 113 161 A 3 3 0 0 1 116 158 Z" stroke="#ffffff" stroke-width="0" opacity="1" filter="none" class="highcharts-point highcharts-color-0" tabindex="-1" role="img" aria-label="Hospices Civils de la Ville de Luxembourg ,  55 Score." style="outline: none;"></path><path fill="rgb(46, 117, 182)" d="M 98 169 L 103 169 A 3 3 0 0 1 106 172 L 106 352 A 0 0 0 0 1 106 352 L 95 352 A 0 0 0 0 1 95 352 L 95 172 A 3 3 0 0 1 98 169 Z" stroke="#ffffff" stroke-width="0" opacity="1" filter="none" class="highcharts-point highcharts-color-0" tabindex="-1" role="img" aria-label="Devenez acteur de votre transition énergétique | Klima-Agence ,  52 Score." style="outline: none;"></path><path fill="rgb(46, 117, 182)" d="M 80 172 L 85 172 A 3 3 0 0 1 88 175 L 88 352 A 0 0 0 0 1 88 352 L 77 352 A 0 0 0 0 1 77 352 L 77 175 A 3 3 0 0 1 80 172 Z" stroke="#ffffff" stroke-width="0" opacity="1" filter="none" class="highcharts-point highcharts-color-0" tabindex="-1" role="img" aria-label="CITA - Contrôle et information du trafic sur les autoroutes ,  51 Score." style="outline: none;"></path><path fill="rgb(46, 117, 182)" d="M 61 187 L 66 187 A 3 3 0 0 1 69 190 L 69 352 A 0 0 0 0 1 69 352 L 58 352 A 0 0 0 0 1 58 352 L 58 190 A 3 3 0 0 1 61 187 Z" stroke="#ffffff" stroke-width="0" opacity="1" filter="none" class="highcharts-point highcharts-color-0" tabindex="-1" role="img" aria-label="Orientation.lu ,  47 Score." style="outline: none;"></path><path fill="rgb(46, 117, 182)" d="M 43 204 L 48 204 A 3 3 0 0 1 51 207 L 51 352 A 0 0 0 0 1 51 352 L 40 352 A 0 0 0 0 1 40 352 L 40 207 A 3 3 0 0 1 43 204 Z" stroke="#ffffff" stroke-width="0" opacity="1" filter="none" class="highcharts-point highcharts-color-0" tabindex="-1" role="img" aria-label="Guichet Unique PME ,  42 Score." style="outline: none;"></path><path fill="rgb(46, 117, 182)" d="M 25 211 L 30 211 A 3 3 0 0 1 33 214 L 33 352 A 0 0 0 0 1 33 352 L 22 352 A 0 0 0 0 1 22 352 L 22 214 A 3 3 0 0 1 25 211 Z" stroke="#ffffff" stroke-width="0" opacity="1" filter="none" class="highcharts-point highcharts-color-0" tabindex="-1" role="img" aria-label="Digital Learning Hub - Affordable IT Courses in Luxembourg ,  40 Score." style="outline: none;"></path><path fill="rgb(46, 117, 182)" d="M 7 215 L 12 215 A 3 3 0 0 1 15 218 L 15 352 A 0 0 0 0 1 15 352 L 4 352 A 0 0 0 0 1 4 352 L 4 218 A 3 3 0 0 1 7 215 Z" stroke="#ffffff" stroke-width="0" opacity="1" filter="none" class="highcharts-point highcharts-color-0" tabindex="-1" role="img" aria-label="SNHBM - Société nationale des habitations à bon marché ,  39 Score." style="outline: none;"></path></g><g class="highcharts-markers highcharts-series-0 highcharts-bar-series highcharts-color-0" data-z-index="0.1" opacity="1" transform="translate(238,61) scale(1 1)" clip-path="none" aria-hidden="true"></g></g><text x="300" class="highcharts-title" data-z-index="4" text-align="center" y="22" text-anchor="middle" transform-origin="246.3677520751953 19" transform="translate(0,0) scale(1 1)" style="font-size: 16px; font-weight: 400; font-family: &quot;Fira Sans&quot;; fill: rgb(51, 51, 51);" aria-hidden="true">Graph 1. Compliance rate of audited sites in 2025, as percentages</text><text x="300" class="highcharts-subtitle" data-z-index="4" text-align="center" y="43" text-anchor="middle" transform-origin="89.609375 15" transform="translate(0,0) scale(1 1)" style="font-size: 0.8em; opacity: 0; fill: rgb(102, 102, 102);" aria-hidden="true"><tspan onclick="document.getElementById('full_compliance').parentNode.querySelector('summary').focus()" style="border: 1px solid black; background: none; padding: 0.5em; cursor: pointer;">Skip to the chart description</tspan></text><text x="10" text-anchor="start" class="highcharts-caption" data-z-index="4" style="font-size: 0.8em; fill: rgb(102, 102, 102);" text-align="left" y="397" transform-origin="10 15" transform="translate(0,0) scale(1 1)" aria-hidden="true"></text><g class="highcharts-datalabels-group" data-z-index="6" aria-hidden="true"><g class="highcharts-data-labels highcharts-series-0 highcharts-bar-series highcharts-color-0" data-z-index="6" opacity="1" transform="translate(238,61) scale(1 1)"><g class="highcharts-label highcharts-data-label highcharts-data-label-color-0" data-z-index="1" filter="none" transform="translate(0,0)"><rect fill="transparent" class="highcharts-label-box highcharts-data-label-box" x="0" y="0" width="28" height="25" rx="0" ry="0" stroke-width="0"></rect><text x="5" data-z-index="1" y="16" style="font-size: 0.7em; font-weight: normal; fill: white;">100</text></g><g class="highcharts-label highcharts-data-label highcharts-data-label-color-0 highcharts-data-label-hidden" data-z-index="1" filter="none" transform="translate(0,15)" opacity="0" style="pointer-events: none;"><rect fill="transparent" class="highcharts-label-box highcharts-data-label-box" x="0" y="0" width="22" height="25" rx="0" ry="0" stroke-width="0"></rect><text x="5" data-z-index="1" y="16" style="font-size: 0.7em; font-weight: normal; fill: white;">90</text></g><g class="highcharts-label highcharts-data-label highcharts-data-label-color-0" data-z-index="1" filter="none" transform="translate(0,33)"><rect fill="transparent" class="highcharts-label-box highcharts-data-label-box" x="0" y="0" width="22" height="25" rx="0" ry="0" stroke-width="0"></rect><text x="5" data-z-index="1" y="16" style="font-size: 0.7em; font-weight: normal; fill: white;">89</text></g><g class="highcharts-label highcharts-data-label highcharts-data-label-color-0 highcharts-data-label-hidden" data-z-index="1" filter="none" transform="translate(0,51)" opacity="0" style="pointer-events: none;"><rect fill="transparent" class="highcharts-label-box highcharts-data-label-box" x="0" y="0" width="22" height="25" rx="0" ry="0" stroke-width="0"></rect><text x="5" data-z-index="1" y="16" style="font-size: 0.7em; font-weight: normal; fill: white;">86</text></g><g class="highcharts-label highcharts-data-label highcharts-data-label-color-0" data-z-index="1" filter="none" transform="translate(0,70)"><rect fill="transparent" class="highcharts-label-box highcharts-data-label-box" x="0" y="0" width="22" height="25" rx="0" ry="0" stroke-width="0"></rect><text x="5" data-z-index="1" y="16" style="font-size: 0.7em; font-weight: normal; fill: white;">82</text></g><g class="highcharts-label highcharts-data-label highcharts-data-label-color-0 highcharts-data-label-hidden" data-z-index="1" filter="none" transform="translate(0,88)" opacity="0" style="pointer-events: none;"><rect fill="transparent" class="highcharts-label-box highcharts-data-label-box" x="0" y="0" width="22" height="25" rx="0" ry="0" stroke-width="0"></rect><text x="5" data-z-index="1" y="16" style="font-size: 0.7em; font-weight: normal; fill: white;">82</text></g><g class="highcharts-label highcharts-data-label highcharts-data-label-color-0" data-z-index="1" filter="none" transform="translate(0,106)"><rect fill="transparent" class="highcharts-label-box highcharts-data-label-box" x="0" y="0" width="22" height="25" rx="0" ry="0" stroke-width="0"></rect><text x="5" data-z-index="1" y="16" style="font-size: 0.7em; font-weight: normal; fill: white;">77</text></g><g class="highcharts-label highcharts-data-label highcharts-data-label-color-0 highcharts-data-label-hidden" data-z-index="1" filter="none" transform="translate(0,124)" opacity="0" style="pointer-events: none;"><rect fill="transparent" class="highcharts-label-box highcharts-data-label-box" x="0" y="0" width="22" height="25" rx="0" ry="0" stroke-width="0"></rect><text x="5" data-z-index="1" y="16" style="font-size: 0.7em; font-weight: normal; fill: white;">61</text></g><g class="highcharts-label highcharts-data-label highcharts-data-label-color-0" data-z-index="1" filter="none" transform="translate(0,143)"><rect fill="transparent" class="highcharts-label-box highcharts-data-label-box" x="0" y="0" width="22" height="25" rx="0" ry="0" stroke-width="0"></rect><text x="5" data-z-index="1" y="16" style="font-size: 0.7em; font-weight: normal; fill: white;">59</text></g><g class="highcharts-label highcharts-data-label highcharts-data-label-color-0 highcharts-data-label-hidden" data-z-index="1" filter="none" transform="translate(0,161)" opacity="0" style="pointer-events: none;"><rect fill="transparent" class="highcharts-label-box highcharts-data-label-box" x="0" y="0" width="22" height="25" rx="0" ry="0" stroke-width="0"></rect><text x="5" data-z-index="1" y="16" style="font-size: 0.7em; font-weight: normal; fill: white;">55</text></g><g class="highcharts-label highcharts-data-label highcharts-data-label-color-0" data-z-index="1" filter="none" transform="translate(0,179)"><rect fill="transparent" class="highcharts-label-box highcharts-data-label-box" x="0" y="0" width="22" height="25" rx="0" ry="0" stroke-width="0"></rect><text x="5" data-z-index="1" y="16" style="font-size: 0.7em; font-weight: normal; fill: white;">52</text></g><g class="highcharts-label highcharts-data-label highcharts-data-label-color-0 highcharts-data-label-hidden" data-z-index="1" filter="none" transform="translate(0,197)" opacity="0" style="pointer-events: none;"><rect fill="transparent" class="highcharts-label-box highcharts-data-label-box" x="0" y="0" width="22" height="25" rx="0" ry="0" stroke-width="0"></rect><text x="5" data-z-index="1" y="16" style="font-size: 0.7em; font-weight: normal; fill: white;">51</text></g><g class="highcharts-label highcharts-data-label highcharts-data-label-color-0" data-z-index="1" filter="none" transform="translate(0,216)"><rect fill="transparent" class="highcharts-label-box highcharts-data-label-box" x="0" y="0" width="22" height="25" rx="0" ry="0" stroke-width="0"></rect><text x="5" data-z-index="1" y="16" style="font-size: 0.7em; font-weight: normal; fill: white;">47</text></g><g class="highcharts-label highcharts-data-label highcharts-data-label-color-0 highcharts-data-label-hidden" data-z-index="1" filter="none" transform="translate(0,234)" opacity="0" style="pointer-events: none;"><rect fill="transparent" class="highcharts-label-box highcharts-data-label-box" x="0" y="0" width="22" height="25" rx="0" ry="0" stroke-width="0"></rect><text x="5" data-z-index="1" y="16" style="font-size: 0.7em; font-weight: normal; fill: white;">42</text></g><g class="highcharts-label highcharts-data-label highcharts-data-label-color-0" data-z-index="1" filter="none" transform="translate(0,252)"><rect fill="transparent" class="highcharts-label-box highcharts-data-label-box" x="0" y="0" width="22" height="25" rx="0" ry="0" stroke-width="0"></rect><text x="5" data-z-index="1" y="16" style="font-size: 0.7em; font-weight: normal; fill: white;">40</text></g><g class="highcharts-label highcharts-data-label highcharts-data-label-color-0 highcharts-data-label-hidden" data-z-index="1" filter="none" transform="translate(0,267)" opacity="0" style="pointer-events: none;"><rect fill="transparent" class="highcharts-label-box highcharts-data-label-box" x="0" y="0" width="22" height="25" rx="0" ry="0" stroke-width="0"></rect><text x="5" data-z-index="1" y="16" style="font-size: 0.7em; font-weight: normal; fill: white;">39</text></g></g></g><g class="highcharts-annotation" opacity="1" data-z-index="6" aria-hidden="true" style="cursor: move;"><g class="highcharts-annotation-shapes" clip-path="url(#highcharts-tkdkmv3-54-)"></g><g class="highcharts-annotation-labels" transform="translate(0,0)"><g class="highcharts-label highcharts-annotation-label highcharts-no-tooltip" transform="translate(381,314)" filter="none"><path fill="rgba(0, 0, 0, 0.75)" class="highcharts-label-box highcharts-annotation-label-box" d="M 3.5 0.5 L 64.5 0.5 A 3 3 0 0 1 67.5 3.5 L 67.5 36.5 A 3 3 0 0 1 64.5 39.5 L 38.5 39.5 L 32.5 45.5 L 26.5 39.5 L 3.5 39.5 A 3 3 0 0 1 0.5 36.5 L 0.5 3.5 A 3 3 0 0 1 3.5 0.5 Z" stroke="#000000" stroke-width="1"></path><text x="5" data-z-index="1" y="16" style="font-size: 0.7em; font-weight: normal; fill: rgb(255, 255, 255);">Partial<tspan class="highcharts-br" dy="14" x="5">​</tspan>compliance</text></g></g></g><g class="highcharts-axis-labels highcharts-yaxis-labels" data-z-index="7" aria-hidden="true"><text x="238" text-anchor="middle" transform="translate(0,0)" style="cursor: default; font-size: 0.8em; fill: rgb(51, 51, 51);" y="380" opacity="1">0</text><text x="308.4" text-anchor="middle" transform="translate(0,0)" style="cursor: default; font-size: 0.8em; fill: rgb(51, 51, 51);" y="380" opacity="1">20</text><text x="378.8" text-anchor="middle" transform="translate(0,0)" style="cursor: default; font-size: 0.8em; fill: rgb(51, 51, 51);" y="380" opacity="1">40</text><text x="449.2" text-anchor="middle" transform="translate(0,0)" style="cursor: default; font-size: 0.8em; fill: rgb(51, 51, 51);" y="380" opacity="1">60</text><text x="519.6" text-anchor="middle" transform="translate(0,0)" style="cursor: default; font-size: 0.8em; fill: rgb(51, 51, 51);" y="380" opacity="1">80</text><text x="579.6000061035156" text-anchor="middle" transform="translate(0,0)" style="cursor: default; font-size: 0.8em; fill: rgb(51, 51, 51);" y="380" opacity="1">100</text></g><g class="highcharts-axis-labels highcharts-xaxis-labels" data-z-index="7" aria-hidden="true"><text x="223" text-anchor="end" transform="translate(0,0)" style="cursor: default; font-size: 0.8em; fill: rgb(51, 51, 51);" y="74" opacity="1"><title>Observatoire de l'accessibilité numérique</title>Observatoire de l'accessibilité…</text><text x="223" text-anchor="end" transform="translate(0,0)" style="cursor: default; font-size: 0.8em; fill: rgb(51, 51, 51);" y="92" opacity="1"><title>Institut national de recherches archéologiques</title>Institut national de recherches…</text><text x="223" text-anchor="end" transform="translate(0,0)" style="cursor: default; font-size: 0.8em; fill: rgb(51, 51, 51);" y="110" opacity="1"><title>Centre commun de la sécurité sociale</title>Centre commun de la sécurité…</text><text x="223" text-anchor="end" transform="translate(0,0)" style="cursor: default; font-size: 0.8em; fill: rgb(51, 51, 51);" y="128" opacity="1"><title>Accessibilité infrastructure - Luxembourg</title>Accessibilité infrastructure -…</text><text x="223" text-anchor="end" transform="translate(0,0)" style="cursor: default; font-size: 0.8em; fill: rgb(51, 51, 51);" y="147" opacity="1">Sécurité alimentaire</text><text x="223" text-anchor="end" transform="translate(0,0)" style="cursor: default; font-size: 0.8em; fill: rgb(51, 51, 51);" y="165" opacity="1"><title>Portail du Grand-Duché de Luxembourg</title>Portail du Grand-Duché de…</text><text x="223" text-anchor="end" transform="translate(0,0)" style="cursor: default; font-size: 0.8em; fill: rgb(51, 51, 51);" y="183" opacity="1">Trésorerie de l'Etat</text><text x="223" text-anchor="end" transform="translate(0,0)" style="cursor: default; font-size: 0.8em; fill: rgb(51, 51, 51);" y="201" opacity="1">Portail de la fonction publique</text><text x="223" text-anchor="end" transform="translate(0,0)" style="cursor: default; font-size: 0.8em; fill: rgb(51, 51, 51);" y="220" opacity="1">Bee secure</text><text x="223" text-anchor="end" transform="translate(0,0)" style="cursor: default; font-size: 0.8em; fill: rgb(51, 51, 51);" y="238" opacity="1"><title>Hospices Civils de la Ville de Luxembourg</title>Hospices Civils de la Ville de…</text><text x="223" text-anchor="end" transform="translate(0,0)" style="cursor: default; font-size: 0.8em; fill: rgb(51, 51, 51);" y="256" opacity="1"><title>Devenez acteur de votre transition énergétique | Klima-Agence</title>Devenez acteur de votre…</text><text x="223" text-anchor="end" transform="translate(0,0)" style="cursor: default; font-size: 0.8em; fill: rgb(51, 51, 51);" y="274" opacity="1"><title>CITA - Contrôle et information du trafic sur les autoroutes</title>CITA - Contrôle et information…</text><text x="223" text-anchor="end" transform="translate(0,0)" style="cursor: default; font-size: 0.8em; fill: rgb(51, 51, 51);" y="293" opacity="1">Orientation.lu</text><text x="223" text-anchor="end" transform="translate(0,0)" style="cursor: default; font-size: 0.8em; fill: rgb(51, 51, 51);" y="311" opacity="1">Guichet Unique PME</text><text x="223" text-anchor="end" transform="translate(0,0)" style="cursor: default; font-size: 0.8em; fill: rgb(51, 51, 51);" y="329" opacity="1"><title>Digital Learning Hub - Affordable IT Courses in Luxembourg</title>Digital Learning Hub -…</text><text x="223" text-anchor="end" transform="translate(0,0)" style="cursor: default; font-size: 0.8em; fill: rgb(51, 51, 51);" y="347" opacity="1"><title>SNHBM - Société nationale des habitations à bon marché</title>SNHBM - Société nationale des…</text></g><g class="highcharts-control-points" data-z-index="99" clip-path="url(#highcharts-tkdkmv3-54-)" aria-hidden="true"></g></svg>