<svg xmlns:xlink="http://www.w3.org/1999/xlink" version="1.1" class="highcharts-root" style="font-family: -apple-system, BlinkMacSystemFont, &quot;Segoe UI&quot;, Roboto, Helvetica, Arial, &quot;Apple Color Emoji&quot;, &quot;Segoe UI Emoji&quot;, &quot;Segoe UI Symbol&quot;, sans-serif; font-size: 1rem;" xmlns="http://www.w3.org/2000/svg" width="600" height="400" viewBox="0 0 600 400" aria-hidden="false"><desc aria-hidden="true">Created with Highcharts 12.3.0</desc><defs aria-hidden="true"><filter id="highcharts-drop-shadow-2"><feDropShadow dx="1" dy="1" flood-color="#000000" flood-opacity="0.75" stdDeviation="2.5"></feDropShadow></filter><clipPath id="highcharts-tkdkmv3-64-"><rect x="0" y="0" width="551" height="270" fill="none"></rect></clipPath><clipPath id="highcharts-tkdkmv3-65-"><rect x="39" y="61" width="551" height="270" fill="none"></rect></clipPath></defs><rect fill="#ffffff" class="highcharts-background" filter="none" x="0" y="0" width="600" height="400" rx="0" ry="0" aria-hidden="true"></rect><rect fill="none" class="highcharts-plot-background" x="39" y="61" width="551" height="270" filter="none" aria-hidden="true"></rect><g class="highcharts-grid highcharts-xaxis-grid" data-z-index="1" aria-hidden="true"><path fill="none" stroke="#e6e6e6" stroke-width="0" stroke-dasharray="none" data-z-index="1" class="highcharts-grid-line" d="M 222.5 61 L 222.5 331" opacity="1"></path><path fill="none" stroke="#e6e6e6" stroke-width="0" stroke-dasharray="none" data-z-index="1" class="highcharts-grid-line" d="M 406.5 61 L 406.5 331" opacity="1"></path><path fill="none" stroke="#e6e6e6" stroke-width="0" stroke-dasharray="none" data-z-index="1" class="highcharts-grid-line" d="M 590.5 61 L 590.5 331" opacity="1"></path><path fill="none" stroke="#e6e6e6" stroke-width="0" stroke-dasharray="none" data-z-index="1" class="highcharts-grid-line" d="M 39.5 61 L 39.5 331" opacity="1"></path></g><g class="highcharts-grid highcharts-yaxis-grid" data-z-index="1" aria-hidden="true"><path fill="none" stroke="#e6e6e6" stroke-width="1" stroke-dasharray="none" data-z-index="1" class="highcharts-grid-line" d="M 39 331.5 L 590 331.5" opacity="1"></path><path fill="none" stroke="#e6e6e6" stroke-width="1" stroke-dasharray="none" data-z-index="1" class="highcharts-grid-line" d="M 39 263.5 L 590 263.5" opacity="1"></path><path fill="none" stroke="#e6e6e6" stroke-width="1" stroke-dasharray="none" data-z-index="1" class="highcharts-grid-line" d="M 39 196.5 L 590 196.5" opacity="1"></path><path fill="none" stroke="#e6e6e6" stroke-width="1" stroke-dasharray="none" data-z-index="1" class="highcharts-grid-line" d="M 39 128.5 L 590 128.5" opacity="1"></path><path fill="none" stroke="#e6e6e6" stroke-width="1" stroke-dasharray="none" data-z-index="1" class="highcharts-grid-line" d="M 39 61.5 L 590 61.5" opacity="1"></path></g><rect fill="none" class="highcharts-plot-border" data-z-index="1" stroke="#cccccc" stroke-width="0" x="39" y="61" width="551" height="270" aria-hidden="true"></rect><g class="highcharts-axis highcharts-xaxis" data-z-index="2" aria-hidden="true"><text x="314.5" data-z-index="7" text-anchor="middle" transform="translate(0,0)" class="highcharts-axis-title" style="font-size: 0.8em; fill: rgb(102, 102, 102);" y="480">Administrative area</text><path fill="none" class="highcharts-axis-line" stroke="#333333" stroke-width="1" data-z-index="7" d="M 39 331.5 L 590 331.5"></path></g><g class="highcharts-axis highcharts-yaxis" data-z-index="2" aria-hidden="true"><path fill="none" class="highcharts-axis-line" stroke="#333333" stroke-width="0" data-z-index="7" d="M 39 61 L 39 331"></path></g><g class="highcharts-series-group" data-z-index="3" filter="none" aria-hidden="false"><g class="highcharts-series highcharts-series-0 highcharts-column-series highcharts-color-0" data-z-index="0.1" opacity="1" transform="translate(39,61) scale(1 1)" clip-path="url(#highcharts-tkdkmv3-64-)" aria-hidden="false"><path fill="rgb(46, 117, 182)" d="M 75 20 L 109 20 A 3 3 0 0 1 112 23 L 112 270 A 0 0 0 0 1 112 270 L 72 270 A 0 0 0 0 1 72 270 L 72 23 A 3 3 0 0 1 75 20 Z" stroke="#ffffff" stroke-width="0" opacity="1" filter="none" class="highcharts-point highcharts-color-0" tabindex="-1" role="img" aria-label="State ,  74 Score." style="outline: none;"></path><path fill="rgb(46, 117, 182)" d="M 259 78 L 293 78 A 3 3 0 0 1 296 81 L 296 270 A 0 0 0 0 1 296 270 L 256 270 A 0 0 0 0 1 256 270 L 256 81 A 3 3 0 0 1 259 78 Z" stroke="#ffffff" stroke-width="0" opacity="1" filter="none" class="highcharts-point highcharts-color-0" tabindex="-1" role="img" aria-label="Cities ,  57 Score." style="outline: none;"></path><path fill="rgb(46, 117, 182)" d="M 442 71 L 476 71 A 3 3 0 0 1 479 74 L 479 270 A 0 0 0 0 1 479 270 L 439 270 A 0 0 0 0 1 439 270 L 439 74 A 3 3 0 0 1 442 71 Z" stroke="#ffffff" stroke-width="0" opacity="1" filter="none" class="highcharts-point highcharts-color-0" tabindex="-1" role="img" aria-label="Others ,  59 Score." style="outline: none;"></path></g><g class="highcharts-markers highcharts-series-0 highcharts-column-series highcharts-color-0" data-z-index="0.1" opacity="1" transform="translate(39,61) scale(1 1)" clip-path="none" aria-hidden="true"></g></g><text x="300" class="highcharts-title" data-z-index="4" text-align="center" y="22" text-anchor="middle" transform-origin="300 19" transform="translate(0,0) scale(0.7229908585333847 0.7229908585333847)" style="font-size: 16px; font-weight: 400; font-family: &quot;Fira Sans&quot;; fill: rgb(51, 51, 51);" aria-hidden="true">Graph 2. Simplified monitoring of websites, average compliance scores by administrative level, as percentages</text><text x="300" class="highcharts-subtitle" data-z-index="4" text-align="center" y="43" text-anchor="middle" transform-origin="89.609375 15" transform="translate(0,0) scale(1 1)" style="font-size: 0.8em; opacity: 0; fill: rgb(102, 102, 102);" aria-hidden="true"><tspan onclick="document.getElementById('admin_levels').parentNode.querySelector('summary').focus()" style="border: 1px solid black; background: none; padding: 0.5em; cursor: pointer;">Skip to the chart description</tspan></text><text x="10" text-anchor="start" class="highcharts-caption" data-z-index="4" style="font-size: 0.8em; fill: rgb(102, 102, 102);" text-align="left" y="397" transform-origin="10 15" transform="translate(0,0) scale(1 1)" aria-hidden="true"></text><g class="highcharts-datalabels-group" data-z-index="6" aria-hidden="true"><g class="highcharts-data-labels highcharts-series-0 highcharts-column-series highcharts-color-0" data-z-index="6" opacity="1" transform="translate(39,61) scale(1 1)"><g class="highcharts-label highcharts-data-label highcharts-data-label-color-0" data-z-index="1" filter="none" transform="translate(81,245)"><rect fill="transparent" class="highcharts-label-box highcharts-data-label-box" x="0" y="0" width="22" height="25" rx="0" ry="0" stroke-width="0"></rect><text x="11.0390625" data-z-index="1" y="16" text-anchor="middle" style="font-size: 0.7em; font-weight: normal; fill: white;">74</text></g><g class="highcharts-label highcharts-data-label highcharts-data-label-color-0" data-z-index="1" filter="none" transform="translate(265,245)"><rect fill="transparent" class="highcharts-label-box highcharts-data-label-box" x="0" y="0" width="22" height="25" rx="0" ry="0" stroke-width="0"></rect><text x="11.0390625" data-z-index="1" y="16" text-anchor="middle" style="font-size: 0.7em; font-weight: normal; fill: white;">57</text></g><g class="highcharts-label highcharts-data-label highcharts-data-label-color-0" data-z-index="1" filter="none" transform="translate(448,245)"><rect fill="transparent" class="highcharts-label-box highcharts-data-label-box" x="0" y="0" width="22" height="25" rx="0" ry="0" stroke-width="0"></rect><text x="11.0390625" data-z-index="1" y="16" text-anchor="middle" style="font-size: 0.7em; font-weight: normal; fill: white;">59</text></g></g></g><g class="highcharts-axis-labels highcharts-xaxis-labels" data-z-index="7" aria-hidden="true"><text x="130.83333333333667" text-anchor="middle" transform="translate(0,0)" style="cursor: default; font-size: 0.8em; fill: rgb(51, 51, 51);" y="358" opacity="1">State</text><text x="314.4999999999967" text-anchor="middle" transform="translate(0,0)" style="cursor: default; font-size: 0.8em; fill: rgb(51, 51, 51);" y="358" opacity="1">Cities</text><text x="498.1666666666667" text-anchor="middle" transform="translate(0,0)" style="cursor: default; font-size: 0.8em; fill: rgb(51, 51, 51);" y="358" opacity="1">Others</text></g><g class="highcharts-axis-labels highcharts-yaxis-labels" data-z-index="7" aria-hidden="true"><text x="24" text-anchor="end" transform="translate(0,0)" style="cursor: default; font-size: 0.8em; fill: rgb(51, 51, 51);" y="335" opacity="1">0</text><text x="24" text-anchor="end" transform="translate(0,0)" style="cursor: default; font-size: 0.8em; fill: rgb(51, 51, 51);" y="267" opacity="1">20</text><text x="24" text-anchor="end" transform="translate(0,0)" style="cursor: default; font-size: 0.8em; fill: rgb(51, 51, 51);" y="200" opacity="1">40</text><text x="24" text-anchor="end" transform="translate(0,0)" style="cursor: default; font-size: 0.8em; fill: rgb(51, 51, 51);" y="132" opacity="1">60</text><text x="24" text-anchor="end" transform="translate(0,0)" style="cursor: default; font-size: 0.8em; fill: rgb(51, 51, 51);" y="65" opacity="1">80</text></g><g class="highcharts-control-points" data-z-index="99" clip-path="url(#highcharts-tkdkmv3-65-)" aria-hidden="true"></g></svg>