<?xml version="1.0" encoding="iso-8859-1"?>
<!-- Uploaded to: SVG Repo, www.svgrepo.com, Generator: SVG Repo Mixer Tools -->
<svg fill="#004774" height="800px" width="800px" version="1.1" id="Layer_1" xmlns="http://www.w3.org/2000/svg" xmlns:xlink="http://www.w3.org/1999/xlink" 
	 viewBox="0 0 330 330" xml:space="preserve">
<path id="XMLID_18_" d="M315,0H15C6.716,0,0,6.716,0,15v300c0,8.284,6.716,15,15,15h300c8.284,0,15-6.716,15-15V15
	C330,6.716,323.284,0,315,0z M215.606,234.394c5.858,5.857,5.858,15.355,0,21.213C212.678,258.535,208.839,260,205,260
	s-7.678-1.464-10.606-4.394l-80-79.998c-2.813-2.813-4.394-6.628-4.394-10.606c0-3.978,1.58-7.794,4.394-10.607l80-80.002
	c5.857-5.858,15.355-5.858,21.213,0c5.858,5.857,5.858,15.355,0,21.213l-69.393,69.396L215.606,234.394z"/>
</svg>