<svg aria-hidden="false" viewBox="0 0 600 400" height="400" width="600" xmlns="http://www.w3.org/2000/svg" style="font-family: &quot;Lucida Grande&quot;, &quot;Lucida Sans Unicode&quot;, Arial, Helvetica, sans-serif; font-size: 12px;" class="highcharts-root" version="1.1" xmlns:xlink="http://www.w3.org/1999/xlink"><desc aria-hidden="true">Created with Highcharts 10.3.3</desc><defs aria-hidden="true"><pattern patternTransform="scale(1.4 1.4)" y="0" x="0" height="5" width="5" patternContentUnits="userSpaceOnUse" patternUnits="userSpaceOnUse" id="highcharts-pattern-1-6cbc87f121a091c8-export"><path fill="none" stroke-width="2" stroke="#7cb5ec" d="M 0 0 L 5 5 M 4.5 -0.5 L 5.5 0.5 M -0.5 4.5 L 0.5 5.5"></path></pattern><pattern y="0" x="0" height="8" width="70" patternContentUnits="userSpaceOnUse" patternUnits="userSpaceOnUse" id="highcharts-pattern-1-136358f4e352afb6e-export"><path fill="none" stroke-width="2" stroke="rgb(140, 3, 3)" d="M-.02 22c8.373 0 11.938-4.695 16.32-9.662C20.785 7.258 25.728 2 35 2c9.272 0 14.215 5.258 18.7 10.338C58.082 17.305 61.647 22 70.02 22M-.02 14.002C8.353 14 11.918 9.306 16.3 4.339 20.785-.742 25.728-6 35-6 44.272-6 49.215-.742 53.7 4.339c4.382 4.967 7.947 9.661 16.32 9.664M70 6.004c-8.373-.001-11.918-4.698-16.3-9.665C49.215-8.742 44.272-14 35-14c-9.272 0-14.215 5.258-18.7 10.339C11.918 1.306 8.353 6-.02 6.002"></path></pattern><clipPath id="highcharts-yiyjknp-16-"><rect fill="none" height="441" width="303" y="0" x="0"></rect></clipPath><clipPath id="highcharts-yiyjknp-20-"><rect fill="none" height="441" width="303" y="0" x="0"></rect></clipPath><clipPath id="highcharts-yiyjknp-27-"><rect fill="none" height="303" width="441" y="44" x="149"></rect></clipPath></defs><rect aria-hidden="true" ry="0" rx="0" height="400" width="600" y="0" x="0" class="highcharts-background" fill="#ffffff"></rect><rect aria-hidden="true" height="303" width="441" y="44" x="149" class="highcharts-plot-background" fill="none"></rect><g aria-hidden="true" data-z-index="1" class="highcharts-grid highcharts-xaxis-grid"><path opacity="1" d="M 149 145.5 L 590 145.5" class="highcharts-grid-line" data-z-index="1" stroke-dasharray="none" stroke-width="0" stroke="#e6e6e6" fill="none"></path><path opacity="1" d="M 149 246.5 L 590 246.5" class="highcharts-grid-line" data-z-index="1" stroke-dasharray="none" stroke-width="0" stroke="#e6e6e6" fill="none"></path><path opacity="1" d="M 149 347.5 L 590 347.5" class="highcharts-grid-line" data-z-index="1" stroke-dasharray="none" stroke-width="0" stroke="#e6e6e6" fill="none"></path><path opacity="1" d="M 149 44.5 L 590 44.5" class="highcharts-grid-line" data-z-index="1" stroke-dasharray="none" stroke-width="0" stroke="#e6e6e6" fill="none"></path></g><rect aria-hidden="true" height="303" width="441" y="44" x="149" stroke-width="0" stroke="#cccccc" data-z-index="1" class="highcharts-plot-border" fill="none"></rect><g aria-hidden="true" data-z-index="2" class="highcharts-axis highcharts-xaxis"><text y="195.5" style="color: rgb(102, 102, 102); fill: rgb(102, 102, 102);" class="highcharts-axis-title" transform="translate(0,0) rotate(270 -74.40625 195.5)" text-anchor="middle" data-z-index="7" x="-74.40625">Catégorie</text><path d="M 148.5 44 L 148.5 347" data-z-index="7" stroke-width="1" stroke="#ccd6eb" class="highcharts-axis-line" fill="none"></path></g><g aria-hidden="false" data-z-index="3" class="highcharts-series-group"><g style="outline: none;" aria-label="" tabindex="-1" role="region" aria-hidden="false" clip-path="url(#highcharts-yiyjknp-20-)" transform="translate(149,44) rotate(90 69 372) scale(-1 1)" opacity="1" data-z-index="0.1" class="highcharts-series highcharts-series-0 highcharts-bar-series"><rect style="outline: none;" aria-label="PDF visés par la loi, balisés ,  642 Formulaires." role="img" tabindex="-1" class="highcharts-point" opacity="1" stroke-width="0" stroke="#ffffff" fill="url(#highcharts-pattern-1-6cbc87f121a091c8-export)" height="23" width="40" y="237" x="233"></rect><rect style="outline: none;" aria-label="PDF visés par la loi, non balisés ,  705 Formulaires." role="img" tabindex="-1" class="highcharts-point" opacity="1" stroke-width="0" stroke="#ffffff" fill="url(#highcharts-pattern-1-6cbc87f121a091c8-export)" height="26" width="40" y="141" x="132"></rect><rect style="outline: none;" aria-label="PDF exemptés ,  0 Formulaires." role="img" tabindex="-1" class="highcharts-point" opacity="1" stroke-width="0" stroke="#ffffff" fill="url(#highcharts-pattern-1-6cbc87f121a091c8-export)" height="0" width="40" y="15" x="31"></rect></g><g aria-hidden="true" clip-path="none" transform="translate(149,44) scale(1 1)" opacity="1" data-z-index="0.1" class="highcharts-markers highcharts-series-0 highcharts-bar-series"></g><g style="outline: none;" aria-label="" tabindex="-1" role="region" aria-hidden="false" clip-path="url(#highcharts-yiyjknp-20-)" transform="translate(149,44) rotate(90 69 372) scale(-1 1)" opacity="1" data-z-index="0.1" class="highcharts-series highcharts-series-1 highcharts-bar-series"><rect style="outline: none;" aria-label="PDF visés par la loi, balisés ,  0 Images." role="img" tabindex="-1" class="highcharts-point" opacity="1" stroke-width="0" stroke="#ffffff" fill="url(#highcharts-pattern-1-136358f4e352afb6e-export)" height="0" width="40" y="260" x="233"></rect><rect style="outline: none;" aria-label="PDF visés par la loi, non balisés ,  1131 Images." role="img" tabindex="-1" class="highcharts-point" opacity="1" stroke-width="0" stroke="#ffffff" fill="url(#highcharts-pattern-1-136358f4e352afb6e-export)" height="42" width="40" y="167" x="132"></rect><rect style="outline: none;" aria-label="PDF exemptés ,  0 Images." role="img" tabindex="-1" class="highcharts-point" opacity="1" stroke-width="0" stroke="#ffffff" fill="url(#highcharts-pattern-1-136358f4e352afb6e-export)" height="0" width="40" y="15" x="31"></rect></g><g aria-hidden="true" clip-path="none" transform="translate(149,44) scale(1 1)" opacity="1" data-z-index="0.1" class="highcharts-markers highcharts-series-1 highcharts-bar-series"></g><g style="outline: none;" aria-label="" tabindex="-1" role="region" aria-hidden="false" clip-path="url(#highcharts-yiyjknp-20-)" transform="translate(149,44) rotate(90 69 372) scale(-1 1)" opacity="1" data-z-index="0.1" class="highcharts-series highcharts-series-2 highcharts-bar-series highcharts-color-0"><rect style="outline: none;" aria-label="PDF visés par la loi, balisés ,  4949 Autres documents." role="img" tabindex="-1" class="highcharts-point highcharts-color-0" opacity="1" stroke-width="0" stroke="#ffffff" fill="rgb(46, 117, 182)" height="182" width="40" y="260" x="233"></rect><rect style="outline: none;" aria-label="PDF visés par la loi, non balisés ,  6349 Autres documents." role="img" tabindex="-1" class="highcharts-point highcharts-color-0" opacity="1" stroke-width="0" stroke="#ffffff" fill="rgb(46, 117, 182)" height="233" width="40" y="209" x="132"></rect><rect style="outline: none;" aria-label="PDF exemptés ,  11617 Autres documents." role="img" tabindex="-1" class="highcharts-point highcharts-color-0" opacity="1" stroke-width="0" stroke="#ffffff" fill="rgb(46, 117, 182)" height="427" width="40" y="15" x="31"></rect></g><g aria-hidden="true" clip-path="none" transform="translate(149,44) scale(1 1)" opacity="1" data-z-index="0.1" class="highcharts-markers highcharts-series-2 highcharts-bar-series highcharts-color-0"></g></g><text aria-hidden="true" y="22" style="color: rgb(51, 51, 51); font-size: 16px; font-family: &quot;Fira Sans&quot;; font-weight: 400; fill: rgb(51, 51, 51);" data-z-index="4" class="highcharts-title" text-anchor="middle" x="300">Graphique 1. Répartition des PDF disponibles en téléchargement</text><text aria-hidden="true" y="43" style="color: rgb(102, 102, 102); fill: rgb(102, 102, 102);" data-z-index="4" class="highcharts-subtitle" text-anchor="middle" x="300"></text><text aria-hidden="true" y="397" style="color: rgb(102, 102, 102); fill: rgb(102, 102, 102);" data-z-index="4" class="highcharts-caption" text-anchor="start" x="10"></text><g aria-hidden="true" transform="translate(149,44) scale(1 1)" opacity="1" data-z-index="6" class="highcharts-data-labels highcharts-series-0 highcharts-bar-series"><g transform="translate(181,38)" data-z-index="1" class="highcharts-label highcharts-data-label highcharts-data-label-color-undefined"><rect stroke-width="0" ry="0" rx="0" height="24" width="31" y="0" x="0" class="highcharts-label-box highcharts-data-label-box" fill-opacity=".9" fill="rgb(46, 117, 182)"></rect><text style="color: white; font-size: 11px; font-weight: normal; fill: white;" y="16" data-z-index="1" x="5">642</text></g><g transform="translate(274,139)" data-z-index="1" class="highcharts-label highcharts-data-label highcharts-data-label-color-undefined"><rect stroke-width="0" ry="0" rx="0" height="24" width="31" y="0" x="0" class="highcharts-label-box highcharts-data-label-box" fill-opacity=".9" fill="rgb(46, 117, 182)"></rect><text style="color: white; font-size: 11px; font-weight: normal; fill: white;" y="16" data-z-index="1" x="5">705</text></g></g><g aria-hidden="true" transform="translate(149,44) scale(1 1)" opacity="1" data-z-index="6" class="highcharts-data-labels highcharts-series-1 highcharts-bar-series"><g transform="translate(232,139)" data-z-index="1" class="highcharts-label highcharts-data-label highcharts-data-label-color-undefined"><rect stroke-width="0" ry="0" rx="0" height="24" width="38" y="0" x="0" class="highcharts-label-box highcharts-data-label-box" fill-opacity=".9" fill="rgb(46, 117, 182)"></rect><text style="color: white; font-size: 11px; font-weight: normal; fill: white;" y="16" data-z-index="1" x="5">1131</text></g></g><g aria-hidden="true" transform="translate(149,44) scale(1 1)" opacity="1" data-z-index="6" class="highcharts-data-labels highcharts-series-2 highcharts-bar-series highcharts-color-0"><g transform="translate(0,38)" data-z-index="1" class="highcharts-label highcharts-data-label highcharts-data-label-color-0"><rect stroke-width="0" ry="0" rx="0" height="24" width="38" y="0" x="0" class="highcharts-label-box highcharts-data-label-box" fill-opacity=".9" fill="rgb(46, 117, 182)"></rect><text style="color: white; font-size: 11px; font-weight: normal; fill: white;" y="16" data-z-index="1" x="5">4949</text></g><g transform="translate(0,139)" data-z-index="1" class="highcharts-label highcharts-data-label highcharts-data-label-color-0"><rect stroke-width="0" ry="0" rx="0" height="24" width="38" y="0" x="0" class="highcharts-label-box highcharts-data-label-box" fill-opacity=".9" fill="rgb(46, 117, 182)"></rect><text style="color: white; font-size: 11px; font-weight: normal; fill: white;" y="16" data-z-index="1" x="5">6349</text></g><g transform="translate(0,240)" data-z-index="1" class="highcharts-label highcharts-data-label highcharts-data-label-color-0"><rect stroke-width="0" ry="0" rx="0" height="24" width="45" y="0" x="0" class="highcharts-label-box highcharts-data-label-box" fill-opacity=".9" fill="rgb(46, 117, 182)"></rect><text style="color: white; font-size: 11px; font-weight: normal; fill: white;" y="16" data-z-index="1" x="5">11617</text></g></g><g aria-hidden="true" transform="translate(129,359)" data-z-index="7" class="highcharts-legend highcharts-no-tooltip"><rect height="26" width="342" y="0" x="0" stroke-width="0" stroke="#999999" ry="0" rx="0" class="highcharts-legend-box" fill="none"></rect><g data-z-index="1"><g><g transform="translate(8,3)" data-z-index="1" class="highcharts-legend-item highcharts-bar-series highcharts-color-undefined highcharts-series-0"><text style="color: rgb(51, 51, 51); cursor: pointer; font-size: 12px; font-weight: bold; fill: rgb(51, 51, 51);" y="15" data-z-index="2" text-anchor="start" x="21">Formulaires</text><rect data-z-index="3" class="highcharts-point" ry="6" rx="6" fill="url(#highcharts-pattern-1-6cbc87f121a091c8-export)" height="12" width="12" y="4" x="2"></rect></g><g transform="translate(119.525390625,3)" data-z-index="1" class="highcharts-legend-item highcharts-bar-series highcharts-color-undefined highcharts-series-1"><text style="color: rgb(51, 51, 51); cursor: pointer; font-size: 12px; font-weight: bold; fill: rgb(51, 51, 51);" data-z-index="2" text-anchor="start" y="15" x="21">Images</text><rect data-z-index="3" class="highcharts-point" ry="6" rx="6" fill="url(#highcharts-pattern-1-136358f4e352afb6e-export)" height="12" width="12" y="4" x="2"></rect></g><g transform="translate(203.98046875,3)" data-z-index="1" class="highcharts-legend-item highcharts-bar-series highcharts-color-0 highcharts-series-2"><text style="color: rgb(51, 51, 51); cursor: pointer; font-size: 12px; font-weight: bold; fill: rgb(51, 51, 51);" data-z-index="2" text-anchor="start" y="15" x="21">Autres documents</text><rect data-z-index="3" class="highcharts-point" ry="6" rx="6" fill="rgb(46, 117, 182)" height="12" width="12" y="4" x="2"></rect></g></g></g></g><g aria-hidden="true" data-z-index="7" class="highcharts-axis-labels highcharts-xaxis-labels"><text opacity="1" y="90" transform="translate(0,0)" text-anchor="end" style="color: rgb(102, 102, 102); cursor: default; font-size: 14px; word-break: break-all; fill: rgb(102, 102, 102);" x="134">PDF visés par<tspan x="134" dy="17">​</tspan>la loi, balisés</text><text opacity="1" y="182" transform="translate(0,0)" text-anchor="end" style="color: rgb(102, 102, 102); cursor: default; font-size: 14px; word-break: break-all; fill: rgb(102, 102, 102);" x="134">PDF visés par<tspan x="134" dy="17">​</tspan>la loi, non<tspan x="134" dy="17">​</tspan>balisés</text><text opacity="1" y="300" transform="translate(0,0)" text-anchor="end" style="color: rgb(102, 102, 102); cursor: default; font-size: 14px; word-break: break-all; fill: rgb(102, 102, 102);" x="134">PDF exemptés</text></g><g aria-hidden="true" clip-path="url(#highcharts-yiyjknp-27-)" data-z-index="99" class="highcharts-control-points"></g></svg>