<svg height="400" viewBox="0 0 300 300" width="400" xmlns="http://www.w3.org/2000/svg"><path d="m119 32.1c-8.2 3.3-13 10.5-13 19.6 0 7.2 2.8 12.5 8.8 16.8 3.9 2.7 5.2 3 11.5 3 6.1 0 7.8-.4 11.3-2.7 5.3-3.4 9.4-11.2 9.4-17.8 0-6.5-5-14.6-10.9-17.7-4.7-2.5-12.5-3-17.1-1.2zm-2 52.7c-4.8 4.8-5.1 8.2-4.8 46 .3 38.9.3 38.6 7.3 42.3l4.2 2.3 24.9-3.3c13.7-1.8 25.9-3.3 27.2-3.4 2-.2 3.9 2.5 13.8 19.3 13.6 23.1 15.5 25.3 21.7 25.4 7.5.2 14.4-7 13.3-13.9-.2-1.7-5.9-13.5-12.6-26.3-10.2-19.2-12.9-23.6-15.7-25.3-3.3-2.1-4.5-2.2-30.9-2l-27.4.2v-27.1c0-29.4-.2-30.7-5.6-34.9-1.9-1.5-4.1-2.1-7.6-2.1-4.1 0-5.4.5-7.8 2.8z"/><path d="m100.3 98.9c-9.6 7.7-19.5 19.5-24.1 28.7-4.5 9-6.4 16.6-6.3 26 .2 44 47.3 72.7 86.9 52.9 7.5-3.8 17.2-12.1 21.7-18.5l2.9-4.2-2.3-1.9c-3.8-3.1-6.4-2.4-12.7 3.7-7.4 7.1-12.2 10.1-20.4 13.1-8.5 3-22 3.2-30.9.4-19.4-6-34.1-25.7-34.1-45.7 0-11.6 7.3-26.5 19.1-38.9l6.9-7.2v-6.2c0-3.3-.4-6.1-.9-6.1s-3.1 1.7-5.8 3.9zm71.7 101-3.5 3 7.1.1c3.9 0 9.9.3 13.3.6 6.6.7 7.3.1 4.4-3.5-1.5-1.7-3.3-2.2-9.8-2.6-7.8-.6-8.1-.5-11.5 2.4zm54.1 7.3-1.9 4 3.1 1.3c5.1 2.1 11.5 7.2 13.2 10.4 7.3 14.2-9.5 29.1-34.6 30.8-8.8.6-12.9-.4-12.9-3.1 0-.8 2-5.7 4.5-10.9 6.4-13.7 6-16.2-3.1-19.7-7-2.6-27.8-4.3-41.9-3.5-13.1.8-35.8 3.5-36.8 4.5-.5.4.6 1.8 2.3 3 2.9 2.1 3.5 2.1 9.3 1 9.1-1.7 41.2-2.5 46.4-1.1 5 1.4 6.8 3.9 5.2 7.4l-1.1 2.4-23.1.6c-12.8.4-27.5 1.4-32.8 2.2-27.7 4.1-35 15.4-13.8 21.2 10 2.8 40.5 2.4 51.4-.7 12.6-3.5 12.4-3.5 15.1-.9 2.4 2.3 3.4 2.4 18 2.7 16.5.4 27.7-.7 39.6-3.8 21.7-5.7 33.9-17 31.3-29.1-1.7-7.5-13.7-16.2-28.7-20.7l-6.7-2zm-51.3 33.5c-.3.5-1 2.3-1.7 4.1-1.5 3.8-4.8 5.4-15.6 7.7-8.7 1.8-27.2 1.9-33 .1-3.2-.9-4.1-1.7-4.3-3.8-.7-6.1 9.7-8.6 36.1-8.7 10.4-.1 18.7.2 18.5.6z"/><path d="m78.5 208.9c-19.3 6.6-30.8 14.1-36.3 23.5-4.8 8.2-4.1 17.1 1.8 23.8 8.8 10.1 30.9 17.7 60.5 21 22.8 2.5 82 1.2 94.3-2.1 2.4-.7 2.4-.7.5-3l-1.9-2.3-17.9 1.7c-21.3 2.1-54.2 1.6-72.3-1-25-3.6-41.2-10.7-45.7-20.2-2.1-4.3-1.6-12.3 1-17.2 4.1-8 14.9-15.4 30-20.5l9.3-3.2-4.1-2.2c-2.3-1.2-5.1-2.2-6.2-2.2-1.1.1-6.9 1.8-13 3.9z"/></svg>