<svg id="svg" xmlns="http://www.w3.org/2000/svg" xmlns:xlink="http://www.w3.org/1999/xlink" width="400" height="249" viewBox="0, 0, 400,249"><g id="svgg"><path id="path0" d="M45.953 0.452 C 39.729 1.359,33.701 3.823,28.571 7.555 C 24.257 10.694,8.666 26.610,6.194 30.398 C -2.019 42.985,-1.878 59.944,6.543 72.520 C 8.173 74.954,171.910 238.917,175.306 241.515 C 188.143 251.339,210.886 251.506,224.222 241.876 C 227.363 239.608,391.660 75.204,393.433 72.555 C 403.231 57.915,401.886 39.101,390.085 25.698 C 386.639 21.785,375.023 10.312,372.245 8.078 C 359.610 -2.084,340.338 -2.452,326.789 7.209 C 325.637 8.030,296.638 36.727,262.348 70.978 L 200.002 133.254 137.042 70.391 C 79.015 12.453,73.818 7.373,70.719 5.548 C 63.254 1.151,54.088 -0.735,45.953 0.452 " stroke="none" fill="#ffa62b" fill-rule="evenodd"></path></g></svg>