<svg id="svg" xmlns="http://www.w3.org/2000/svg" xmlns:xlink="http://www.w3.org/1999/xlink" width="400" height="400" viewBox="0, 0, 400,400" version="1.1"><g id="svgg"><path id="path0" d="M191.556 30.468 C 183.209 36.132,48.310 146.438,44.141 151.008 C 34.573 161.495,42.643 173.437,59.297 173.438 L 67.188 173.438 67.188 250.078 C 67.188 333.284,66.936 330.747,76.032 339.354 C 84.049 346.938,83.004 346.875,200.000 346.875 C 316.996 346.875,315.951 346.938,323.968 339.354 C 333.064 330.747,332.813 333.284,332.813 250.078 L 332.813 173.438 340.703 173.438 C 353.871 173.438,359.375 169.184,359.375 159.007 C 359.375 153.328,356.419 150.390,326.738 126.563 L 306.300 110.156 306.275 79.226 C 306.244 41.019,306.047 40.625,287.000 40.625 C 269.410 40.625,267.427 42.727,266.853 61.982 L 266.406 76.950 239.063 54.633 C 200.994 23.563,201.415 23.777,191.556 30.468 M240.625 266.406 L 240.625 320.313 200.000 320.313 L 159.375 320.313 159.375 266.406 L 159.375 212.500 200.000 212.500 L 240.625 212.500 240.625 266.406 " stroke="none" fill="#ffa62b" fill-rule="evenodd"></path></g></svg>