<svg xmlns="http://www.w3.org/2000/svg" viewBox="0 0 64 64" id="hyperlink"><g fill="black"><path d="M30.5 40.3c.1.4.1.8.1 1.2 0 2.2-.8 4.2-2.4 5.7L25 50.4c-1.5 1.5-3.6 2.4-5.7 2.4-4.5 0-8.1-3.6-8.1-8.1 0-2.2.8-4.2 2.4-5.7l3.2-3.2c1.5-1.5 3.6-2.4 5.8-2.4.4 0 .8.1 1.2.1l2.5-2.5c-1.2-.4-2.4-.6-3.7-.6-3 0-5.8 1.2-7.9 3.3l-3.2 3.2c-2.1 2.1-3.3 4.9-3.3 7.9 0 6.1 5 11.1 11.1 11.1 3 0 5.8-1.2 7.9-3.3l3.2-3.2c2.1-2.1 3.3-4.9 3.3-7.9 0-1.3-.2-2.5-.6-3.7l-2.6 2.5M44.9 8c-3 0-5.8 1.2-7.9 3.3l-3.2 3.2c-2.1 2.1-3.3 4.9-3.3 7.9 0 1.3.2 2.5.6 3.7l2.5-2.5c-.1-.4-.1-.8-.1-1.2 0-2.2.8-4.2 2.4-5.7l3.2-3.2c1.5-1.5 3.6-2.4 5.8-2.4 4.5 0 8.1 3.6 8.1 8.1 0 2.2-.8 4.2-2.4 5.7l-3.2 3.2c-1.5 1.5-3.6 2.4-5.7 2.4-.4 0-.8-.1-1.2-.1L38 32.8c1.2.4 2.4.6 3.7.6 3 0 5.8-1.2 7.9-3.3l3.2-3.2c2.1-2.1 3.3-4.9 3.3-7.9C56 13 51 8 44.9 8"></path><path d="M24.1 41.5c-.4 0-.8-.2-1.1-.5-.6-.6-.6-1.6 0-2.3l16-16c.6-.6 1.6-.6 2.3 0 .6.6.6 1.6 0 2.3l-16 16c-.4.4-.8.5-1.2.5"></path></g></svg>