<svg id="svg" xmlns="http://www.w3.org/2000/svg" xmlns:xlink="http://www.w3.org/1999/xlink" width="400" height="400" viewBox="0, 0, 400,400" version="1.1"><g id="svgg"><path id="path0" d="M125.000 1.533 C 6.310 21.255,-40.883 166.072,43.788 250.743 C 124.561 331.516,262.974 293.418,290.579 182.813 C 316.059 80.720,228.085 -15.597,125.000 1.533 M166.709 50.097 C 244.893 65.668,273.618 161.729,216.729 217.375 C 159.038 273.806,62.085 240.662,50.060 160.397 C 40.190 94.513,101.001 37.011,166.709 50.097 M284.766 237.133 C 283.047 237.752,281.559 238.263,281.460 238.269 C 281.361 238.276,278.571 241.709,275.261 245.898 C 266.752 256.669,256.515 266.982,246.214 275.161 C 234.299 284.622,232.310 290.003,237.975 297.456 C 246.246 308.336,318.871 392.832,321.799 394.981 C 329.628 400.727,341.114 401.710,350.337 397.423 C 355.910 394.833,392.066 359.294,395.434 353.097 C 401.947 341.110,399.943 328.238,390.071 318.656 C 384.928 313.665,298.303 240.118,295.312 238.204 C 292.308 236.282,288.270 235.872,284.766 237.133 " stroke="none" fill="#ffffff" fill-rule="evenodd"></path></g></svg>