<svg id="svg" xmlns="http://www.w3.org/2000/svg" xmlns:xlink="http://www.w3.org/1999/xlink" width="400" height="400" viewBox="0, 0, 400,400" version="1.1"><g id="svgg"><path id="path0" d="M187.500 1.483 C 139.125 17.230,149.500 87.500,200.199 87.500 C 249.707 87.500,260.790 17.745,213.790 1.968 C 206.387 -0.517,194.328 -0.740,187.500 1.483 M53.677 87.575 C 40.976 90.557,33.146 109.444,39.353 122.131 C 44.109 131.852,51.421 135.256,100.000 150.363 C 139.543 162.660,141.661 163.455,144.793 167.176 C 151.138 174.717,148.220 200.311,128.961 306.033 C 115.834 378.098,115.442 380.994,118.030 386.719 C 122.182 395.902,128.905 399.609,141.406 399.609 C 159.240 399.609,163.685 393.798,169.506 362.874 C 181.342 300.004,193.391 254.929,198.929 252.804 C 204.665 250.603,216.366 291.522,229.963 361.328 C 233.782 380.931,235.545 386.622,239.350 391.610 C 249.245 404.583,274.018 402.456,281.393 388.000 C 284.700 381.520,284.646 381.109,270.741 306.641 C 254.153 217.808,249.517 184.349,252.371 174.074 C 254.102 167.840,256.281 166.831,303.516 150.387 C 358.968 131.083,363.344 128.134,362.315 110.761 C 361.108 90.366,350.103 84.114,326.865 90.623 C 263.028 108.505,213.321 115.281,175.173 111.300 C 144.314 108.080,101.562 99.345,68.359 89.477 C 60.379 87.105,57.352 86.713,53.677 87.575 " stroke="none" fill="#ffffff" fill-rule="evenodd"></path></g></svg>